<?xml version="1.0" ?><svg enable-background="new 0 0 504 504" id="Layer_1" version="1.1" viewBox="0 0 504 504" xml:space="preserve" xmlns="http://www.w3.org/2000/svg" xmlns:xlink="http://www.w3.org/1999/xlink"><path d="M452.2,251.6c-9.2,58.5-27.1,75.6-58.8,114.9c-31.7,33.3-77.3,88.9-141.9,85.8  c-58.5-9.2-75.6-27.1-114.9-58.8c-33.3-31.7-88.9-77.3-85.8-141.9c9.2-58.5,27.1-75.6,58.8-114.9c31.7-33.3,77.3-88.9,141.9-85.8  c58.5,9.2,75.6,27.1,114.9,58.8C399.7,141.4,455.3,187,452.2,251.6z" fill="#3765AF"/><g id="Layer_1_1_"><g><g><path d="M193.6,175.6h34.3v96.5c0,43.3-20.9,58.7-53.9,58.7c-8.3,0-18.5-1.2-25.2-3.5l3.9-28     c4.7,1.6,11,2.8,17.7,2.8c14.6,0,23.6-6.7,23.6-29.9L193.6,175.6L193.6,175.6z" fill="#FFFFFF"/><path d="M258.2,293c9.1,4.7,23.6,9.5,38.2,9.5c15.8,0,24-6.7,24-16.9c0-9.5-7.1-15-25.6-21.3     c-25.2-9.1-42.1-23.2-42.1-45.7c0-25.6,22.1-45.3,57.9-45.3c17.3,0,29.9,3.5,39,7.9l-7.9,27.6c-5.9-2.8-16.9-7.1-31.5-7.1     c-15,0-22,7.1-22,14.6c0,9.8,8.3,14.2,28.3,21.7c26.8,9.8,39.4,24,39.4,45.7c0,25.6-19.3,47.3-61.4,47.3     c-17.3,0-34.7-4.7-43.3-9.5L258.2,293z" fill="#FFFFFF"/></g></g></g></svg>