<?xml version="1.0" standalone="no"?>
<!DOCTYPE svg PUBLIC "-//W3C//DTD SVG 20010904//EN"
 "http://www.w3.org/TR/2001/REC-SVG-20010904/DTD/svg10.dtd">
<svg version="1.0" xmlns="http://www.w3.org/2000/svg"
 width="700.000000pt" height="700.000000pt" viewBox="0 0 700.000000 700.000000"
 preserveAspectRatio="xMidYMid meet">
<metadata>
Created by potrace 1.11, written by Peter Selinger 2001-2013
</metadata>
<g transform="translate(0.000000,700.000000) scale(0.100000,-0.100000)"
fill="#000000" stroke="none">
<path d="M3235 6283 c-321 -42 -650 -196 -980 -460 -330 -264 -915 -904 -1167
-1278 -173 -256 -274 -499 -341 -820 -43 -201 -48 -265 -37 -404 36 -443 259
-861 705 -1320 372 -384 871 -805 1152 -975 223 -134 501 -231 832 -292 122
-22 343 -15 476 16 283 64 568 209 842 429 323 257 756 719 1098 1171 233 307
350 575 436 994 29 140 30 161 25 296 -8 235 -60 429 -176 659 -149 298 -368
568 -771 951 -255 242 -436 396 -687 583 -308 229 -576 347 -972 427 -121 25
-167 30 -275 28 -71 0 -143 -3 -160 -5z m1306 -1708 c89 -13 266 -63 298 -84
13 -8 7 -39 -39 -201 -45 -158 -56 -189 -69 -184 -151 69 -377 107 -503 86
-162 -28 -250 -125 -218 -242 25 -92 97 -140 372 -250 203 -82 287 -130 383
-221 121 -115 175 -243 175 -415 0 -256 -119 -444 -355 -559 -110 -54 -213
-81 -369 -96 -202 -20 -476 19 -651 91 -67 29 -76 35 -71 54 3 11 24 100 48
196 23 96 43 176 44 178 1 2 20 -6 43 -17 66 -34 215 -79 322 -97 120 -20 269
-15 343 11 125 45 188 178 137 290 -37 81 -117 133 -333 214 -417 156 -606
374 -585 676 15 213 137 386 343 488 142 70 257 95 454 96 74 1 178 -6 231
-14z m-1371 -667 c0 -879 -9 -979 -101 -1167 -75 -153 -208 -258 -389 -308
-94 -26 -422 -26 -532 0 -59 14 -78 22 -78 35 0 28 49 365 54 369 2 3 21 -1
43 -7 119 -34 295 -30 372 9 50 26 95 81 124 151 22 55 22 55 25 813 l3 757
239 0 240 0 0 -652z"/>
</g>
</svg>
